<?xml version="1.0" encoding="UTF-8" standalone="no"?>
<!DOCTYPE svg PUBLIC "-//W3C//DTD SVG 1.1//EN" "http://www.w3.org/Graphics/SVG/1.1/DTD/svg11.dtd">
<svg width="100%" height="100%" viewBox="0 0 4017 580" version="1.1" xmlns="http://www.w3.org/2000/svg" xmlns:xlink="http://www.w3.org/1999/xlink" xml:space="preserve" xmlns:serif="http://www.serif.com/" style="fill-rule:evenodd;clip-rule:evenodd;stroke-linecap:round;stroke-linejoin:round;stroke-miterlimit:3;">
    <g transform="matrix(1,0,0,1,16.666667,-1078.449198)">
        <g transform="matrix(1.336362,0,0,1.336362,-677.42142,-424.8196)">
            <g transform="matrix(6.975123,0,0,6.975123,-6665.884204,-1390.923214)">
                <path d="M1118.746,384.484C1118.746,387.055 1119.486,389.049 1120.967,390.465C1122.449,391.881 1125.093,392.589 1128.902,392.589L1138.546,392.589C1145.381,392.589 1148.799,389.887 1148.799,384.484L1148.799,366.417L1160.811,366.417L1160.811,384.533C1160.811,389.66 1159.208,393.838 1156.002,397.069C1152.795,400.3 1147.896,401.915 1141.304,401.915L1126.094,401.915C1122.66,401.915 1119.669,401.468 1117.122,400.573C1114.575,399.677 1112.211,398.038 1110.03,395.653C1107.849,393.269 1106.758,389.562 1106.758,384.533L1106.758,366.417L1118.746,366.417L1118.746,384.484Z" style="fill:white;fill-rule:nonzero;"/>
            </g>
            <g transform="matrix(6.975123,0,0,6.975123,-6675.524043,-1390.923214)">
                <path d="M1221.553,366.417L1221.553,401.427L1208.541,401.427L1179.048,378.966L1179.048,401.427L1167.037,401.427L1167.037,366.368L1181.392,366.368L1209.542,387.828L1209.542,366.417L1221.553,366.417Z" style="fill:white;fill-rule:nonzero;"/>
            </g>
            <g transform="matrix(6.975123,0,0,6.975123,-6676.479036,-1390.923214)">
                <path d="M1227.584,390.905C1226.884,388.821 1226.534,386.53 1226.534,384.032C1226.534,381.534 1226.884,379.235 1227.584,377.135C1228.284,375.035 1229.378,373.127 1230.867,371.41C1232.357,369.693 1234.375,368.35 1236.922,367.382C1239.469,366.413 1242.46,365.929 1245.894,365.929L1263.79,365.929C1267.159,365.929 1270.133,366.421 1272.713,367.406C1275.293,368.391 1277.335,369.742 1278.841,371.459C1280.346,373.176 1281.465,375.084 1282.198,377.184C1282.93,379.284 1283.297,381.566 1283.297,384.032C1283.297,386.498 1282.93,388.772 1282.198,390.856C1281.465,392.939 1280.338,394.823 1278.817,396.508C1277.295,398.192 1275.26,399.515 1272.713,400.475C1270.166,401.435 1267.191,401.915 1263.79,401.915L1245.894,401.915C1242.46,401.915 1239.469,401.443 1236.922,400.499C1234.375,399.555 1232.357,398.241 1230.867,396.556C1229.378,394.872 1228.284,392.988 1227.584,390.905ZM1238.546,383.971C1238.546,386.575 1239.294,388.663 1240.792,390.233C1242.289,391.804 1244.926,392.589 1248.702,392.589L1261.055,392.589C1267.891,392.589 1271.301,389.716 1271.285,383.971C1271.285,378.209 1267.875,375.328 1261.055,375.328L1248.702,375.328C1241.931,375.328 1238.546,378.209 1238.546,383.971Z" style="fill:white;fill-rule:nonzero;"/>
            </g>
            <g transform="matrix(6.975123,0,0,6.975123,-6677.434029,-1390.923214)">
                <path d="M1288.277,401.427L1288.277,366.417L1322.847,366.417C1326.249,366.417 1329.223,366.885 1331.771,367.821C1334.318,368.757 1336.714,370.45 1338.961,372.899C1341.207,375.349 1342.33,379.096 1342.33,384.142C1342.33,389.188 1340.731,393.33 1337.532,396.569C1334.334,399.808 1329.439,401.427 1322.847,401.427L1288.277,401.427ZM1320.089,375.817L1300.289,375.817L1300.289,392.077L1320.089,392.077C1326.924,392.077 1330.342,389.367 1330.342,383.947C1330.342,378.527 1326.924,375.817 1320.089,375.817Z" style="fill:white;fill-rule:nonzero;"/>
            </g>
            <g transform="matrix(6.975123,0,0,6.975123,-6678.389023,-1390.923214)">
                <path d="M1396.065,375.939L1359.322,375.939L1359.322,379.43L1392.964,379.43L1392.964,388.439L1359.322,388.439L1359.322,391.93L1396.065,391.93L1396.065,401.427L1347.31,401.427L1347.31,366.417L1396.065,366.417L1396.065,375.939Z" style="fill:white;fill-rule:nonzero;"/>
            </g>
            <g>
                <path d="M3335.306,1409.08L3243.488,1409.08L3093.121,1164.883L3188.314,1164.883L3296.449,1344.54L3296.449,1344.539L3335.306,1409.08Z" style="fill:white;"/>
                <path d="M3303.644,1332.623L3404.924,1164.883L3500.117,1164.883L3349.75,1409.08L3349.674,1409.08L3303.644,1332.623Z" style="fill:rgb(6,115,251);"/>
            </g>
        </g>
        <g transform="matrix(1.894408,0,0,1.894408,-1103.347631,-1338.742586)">
            <path d="M1085.663,1548.637L1085.663,1516.437L1091.663,1516.437L1091.663,1548.637L1085.663,1548.637ZM1074.863,1517.437L1074.863,1512.137L1102.513,1512.137L1102.513,1517.437L1074.863,1517.437Z" style="fill:white;fill-rule:nonzero;"/>
            <path d="M1146.613,1548.637L1146.613,1512.137L1152.563,1512.137L1152.563,1548.637L1146.613,1548.637ZM1151.563,1548.637L1151.563,1543.437L1168.663,1543.437L1168.663,1548.637L1151.563,1548.637ZM1151.563,1532.687L1151.563,1527.487L1167.263,1527.487L1167.263,1532.687L1151.563,1532.687ZM1151.563,1517.337L1151.563,1512.137L1168.213,1512.137L1168.213,1517.337L1151.563,1517.337Z" style="fill:white;fill-rule:nonzero;"/>
            <path d="M1230.363,1549.537C1227.029,1549.537 1224.188,1548.962 1221.838,1547.812C1219.488,1546.662 1217.588,1545.146 1216.138,1543.262C1214.688,1541.379 1213.621,1539.346 1212.938,1537.162C1212.254,1534.979 1211.913,1532.871 1211.913,1530.837L1211.913,1529.737C1211.913,1527.504 1212.263,1525.287 1212.963,1523.087C1213.663,1520.887 1214.738,1518.887 1216.188,1517.087C1217.638,1515.287 1219.521,1513.837 1221.838,1512.737C1224.154,1511.637 1226.896,1511.087 1230.063,1511.087C1233.363,1511.087 1236.213,1511.671 1238.613,1512.837C1241.013,1514.004 1242.921,1515.629 1244.338,1517.712C1245.754,1519.796 1246.596,1522.254 1246.863,1525.087L1240.813,1525.087C1240.546,1523.221 1239.921,1521.662 1238.938,1520.412C1237.954,1519.162 1236.704,1518.221 1235.188,1517.587C1233.671,1516.954 1231.963,1516.637 1230.063,1516.637C1228.096,1516.637 1226.354,1516.987 1224.838,1517.687C1223.321,1518.387 1222.063,1519.354 1221.063,1520.587C1220.063,1521.821 1219.304,1523.262 1218.788,1524.912C1218.271,1526.562 1218.013,1528.371 1218.013,1530.337C1218.013,1532.204 1218.271,1533.962 1218.788,1535.612C1219.304,1537.262 1220.079,1538.721 1221.113,1539.987C1222.146,1541.254 1223.438,1542.237 1224.988,1542.937C1226.538,1543.637 1228.329,1543.987 1230.363,1543.987C1233.296,1543.987 1235.763,1543.262 1237.763,1541.812C1239.763,1540.362 1240.979,1538.287 1241.413,1535.587L1247.513,1535.587C1247.179,1538.154 1246.313,1540.496 1244.913,1542.612C1243.513,1544.729 1241.596,1546.412 1239.163,1547.662C1236.729,1548.912 1233.796,1549.537 1230.363,1549.537Z" style="fill:white;fill-rule:nonzero;"/>
            <path d="M1292.063,1548.637L1292.063,1512.137L1301.863,1512.137L1318.813,1543.487L1320.463,1543.487L1319.463,1544.387L1319.463,1512.137L1325.163,1512.137L1325.163,1548.637L1315.263,1548.637L1298.313,1517.287L1296.663,1517.287L1297.663,1516.387L1297.663,1548.637L1292.063,1548.637Z" style="fill:white;fill-rule:nonzero;"/>
            <path d="M1389.713,1549.537C1386.413,1549.537 1383.571,1548.962 1381.188,1547.812C1378.804,1546.662 1376.829,1545.137 1375.263,1543.237C1373.696,1541.337 1372.538,1539.296 1371.788,1537.112C1371.038,1534.929 1370.663,1532.837 1370.663,1530.837L1370.663,1529.737C1370.663,1527.537 1371.054,1525.337 1371.838,1523.137C1372.621,1520.937 1373.804,1518.929 1375.388,1517.112C1376.971,1515.296 1378.954,1513.837 1381.338,1512.737C1383.721,1511.637 1386.513,1511.087 1389.713,1511.087C1392.913,1511.087 1395.696,1511.637 1398.063,1512.737C1400.429,1513.837 1402.413,1515.296 1404.013,1517.112C1405.613,1518.929 1406.804,1520.937 1407.588,1523.137C1408.371,1525.337 1408.763,1527.537 1408.763,1529.737L1408.763,1530.837C1408.763,1532.837 1408.379,1534.929 1407.613,1537.112C1406.846,1539.296 1405.688,1541.337 1404.138,1543.237C1402.588,1545.137 1400.613,1546.662 1398.213,1547.812C1395.813,1548.962 1392.979,1549.537 1389.713,1549.537ZM1389.713,1543.987C1391.713,1543.987 1393.513,1543.621 1395.113,1542.887C1396.713,1542.154 1398.079,1541.154 1399.213,1539.887C1400.346,1538.621 1401.204,1537.171 1401.788,1535.537C1402.371,1533.904 1402.663,1532.171 1402.663,1530.337C1402.663,1528.404 1402.363,1526.612 1401.763,1524.962C1401.163,1523.312 1400.304,1521.862 1399.188,1520.612C1398.071,1519.362 1396.713,1518.387 1395.113,1517.687C1393.513,1516.987 1391.713,1516.637 1389.713,1516.637C1387.713,1516.637 1385.913,1516.987 1384.313,1517.687C1382.713,1518.387 1381.346,1519.362 1380.213,1520.612C1379.079,1521.862 1378.221,1523.312 1377.638,1524.962C1377.054,1526.612 1376.763,1528.404 1376.763,1530.337C1376.763,1532.171 1377.054,1533.904 1377.638,1535.537C1378.221,1537.171 1379.079,1538.621 1380.213,1539.887C1381.346,1541.154 1382.713,1542.154 1384.313,1542.887C1385.913,1543.621 1387.713,1543.987 1389.713,1543.987Z" style="fill:white;fill-rule:nonzero;"/>
            <path d="M1454.213,1548.637L1454.213,1512.137L1460.213,1512.137L1460.213,1548.637L1454.213,1548.637ZM1459.213,1548.637L1459.213,1543.287L1475.463,1543.287L1475.463,1548.637L1459.213,1548.637Z" style="fill:white;fill-rule:nonzero;"/>
            <path d="M1535.763,1549.537C1532.463,1549.537 1529.621,1548.962 1527.238,1547.812C1524.854,1546.662 1522.879,1545.137 1521.313,1543.237C1519.746,1541.337 1518.588,1539.296 1517.838,1537.112C1517.088,1534.929 1516.713,1532.837 1516.713,1530.837L1516.713,1529.737C1516.713,1527.537 1517.104,1525.337 1517.888,1523.137C1518.671,1520.937 1519.854,1518.929 1521.438,1517.112C1523.021,1515.296 1525.004,1513.837 1527.388,1512.737C1529.771,1511.637 1532.563,1511.087 1535.763,1511.087C1538.963,1511.087 1541.746,1511.637 1544.113,1512.737C1546.479,1513.837 1548.463,1515.296 1550.063,1517.112C1551.663,1518.929 1552.854,1520.937 1553.638,1523.137C1554.421,1525.337 1554.813,1527.537 1554.813,1529.737L1554.813,1530.837C1554.813,1532.837 1554.429,1534.929 1553.663,1537.112C1552.896,1539.296 1551.738,1541.337 1550.188,1543.237C1548.638,1545.137 1546.663,1546.662 1544.263,1547.812C1541.863,1548.962 1539.029,1549.537 1535.763,1549.537ZM1535.763,1543.987C1537.763,1543.987 1539.563,1543.621 1541.163,1542.887C1542.763,1542.154 1544.129,1541.154 1545.263,1539.887C1546.396,1538.621 1547.254,1537.171 1547.838,1535.537C1548.421,1533.904 1548.713,1532.171 1548.713,1530.337C1548.713,1528.404 1548.413,1526.612 1547.813,1524.962C1547.213,1523.312 1546.354,1521.862 1545.238,1520.612C1544.121,1519.362 1542.763,1518.387 1541.163,1517.687C1539.563,1516.987 1537.763,1516.637 1535.763,1516.637C1533.763,1516.637 1531.963,1516.987 1530.363,1517.687C1528.763,1518.387 1527.396,1519.362 1526.263,1520.612C1525.129,1521.862 1524.271,1523.312 1523.688,1524.962C1523.104,1526.612 1522.813,1528.404 1522.813,1530.337C1522.813,1532.171 1523.104,1533.904 1523.688,1535.537C1524.271,1537.171 1525.129,1538.621 1526.263,1539.887C1527.396,1541.154 1528.763,1542.154 1530.363,1542.887C1531.963,1543.621 1533.763,1543.987 1535.763,1543.987Z" style="fill:white;fill-rule:nonzero;"/>
            <path d="M1616.913,1549.537C1613.913,1549.537 1611.246,1549.046 1608.913,1548.062C1606.579,1547.079 1604.596,1545.721 1602.963,1543.987C1601.329,1542.254 1600.088,1540.237 1599.238,1537.937C1598.388,1535.637 1597.963,1533.204 1597.963,1530.637L1597.963,1529.537C1597.963,1527.237 1598.363,1524.987 1599.163,1522.787C1599.963,1520.587 1601.138,1518.604 1602.688,1516.837C1604.238,1515.071 1606.138,1513.671 1608.388,1512.637C1610.638,1511.604 1613.213,1511.087 1616.113,1511.087C1619.213,1511.087 1621.979,1511.679 1624.413,1512.862C1626.846,1514.046 1628.796,1515.679 1630.263,1517.762C1631.729,1519.846 1632.579,1522.254 1632.813,1524.987L1626.713,1524.987C1626.513,1523.187 1625.904,1521.671 1624.888,1520.437C1623.871,1519.204 1622.604,1518.262 1621.088,1517.612C1619.571,1516.962 1617.913,1516.637 1616.113,1516.637C1614.313,1516.637 1612.671,1516.962 1611.188,1517.612C1609.704,1518.262 1608.429,1519.179 1607.363,1520.362C1606.296,1521.546 1605.479,1522.962 1604.913,1524.612C1604.346,1526.262 1604.063,1528.104 1604.063,1530.137C1604.063,1532.404 1604.371,1534.404 1604.988,1536.137C1605.604,1537.871 1606.479,1539.329 1607.613,1540.512C1608.746,1541.696 1610.104,1542.596 1611.688,1543.212C1613.271,1543.829 1615.013,1544.137 1616.913,1544.137C1619.546,1544.137 1621.854,1543.596 1623.838,1542.512C1625.821,1541.429 1627.313,1540.021 1628.313,1538.287L1626.763,1544.137L1626.763,1533.987L1632.363,1533.987L1632.363,1542.387C1630.729,1544.654 1628.604,1546.412 1625.988,1547.662C1623.371,1548.912 1620.346,1549.537 1616.913,1549.537ZM1615.663,1535.187L1615.663,1530.487L1635.413,1530.487L1635.413,1535.187L1615.663,1535.187Z" style="fill:white;fill-rule:nonzero;"/>
            <rect x="1679.963" y="1512.137" width="6" height="36.5" style="fill:white;fill-rule:nonzero;"/>
            <path d="M1730.113,1548.637L1742.913,1512.137L1752.863,1512.137L1766.063,1548.637L1759.863,1548.637L1748.313,1516.137L1750.763,1517.287L1744.713,1517.287L1747.313,1516.137L1736.113,1548.637L1730.113,1548.637ZM1738.413,1538.337L1740.313,1533.137L1755.613,1533.137L1757.563,1538.337L1738.413,1538.337Z" style="fill:white;fill-rule:nonzero;"/>
            <path d="M1882.813,1559.287C1880.879,1559.287 1879.188,1559.029 1877.738,1558.512C1876.288,1557.996 1875.171,1557.079 1874.388,1555.762C1873.604,1554.446 1873.213,1552.621 1873.213,1550.287L1873.213,1545.487L1878.763,1545.487L1878.763,1550.937C1878.763,1551.971 1879.071,1552.787 1879.688,1553.387C1880.304,1553.987 1881.129,1554.287 1882.163,1554.287L1888.113,1554.287L1888.113,1559.287L1882.813,1559.287ZM1875.963,1549.537C1872.663,1549.537 1869.821,1548.962 1867.438,1547.812C1865.054,1546.662 1863.079,1545.137 1861.513,1543.237C1859.946,1541.337 1858.788,1539.296 1858.038,1537.112C1857.288,1534.929 1856.913,1532.837 1856.913,1530.837L1856.913,1529.737C1856.913,1527.537 1857.304,1525.337 1858.088,1523.137C1858.871,1520.937 1860.054,1518.929 1861.638,1517.112C1863.221,1515.296 1865.204,1513.837 1867.588,1512.737C1869.971,1511.637 1872.763,1511.087 1875.963,1511.087C1879.163,1511.087 1881.946,1511.637 1884.313,1512.737C1886.679,1513.837 1888.663,1515.296 1890.263,1517.112C1891.863,1518.929 1893.054,1520.937 1893.838,1523.137C1894.621,1525.337 1895.013,1527.537 1895.013,1529.737L1895.013,1530.837C1895.013,1532.837 1894.629,1534.929 1893.863,1537.112C1893.096,1539.296 1891.938,1541.337 1890.388,1543.237C1888.838,1545.137 1886.863,1546.662 1884.463,1547.812C1882.063,1548.962 1879.229,1549.537 1875.963,1549.537ZM1875.963,1543.987C1877.963,1543.987 1879.763,1543.621 1881.363,1542.887C1882.963,1542.154 1884.329,1541.154 1885.463,1539.887C1886.596,1538.621 1887.454,1537.171 1888.038,1535.537C1888.621,1533.904 1888.913,1532.171 1888.913,1530.337C1888.913,1528.404 1888.613,1526.612 1888.013,1524.962C1887.413,1523.312 1886.554,1521.862 1885.438,1520.612C1884.321,1519.362 1882.963,1518.387 1881.363,1517.687C1879.763,1516.987 1877.963,1516.637 1875.963,1516.637C1873.963,1516.637 1872.163,1516.987 1870.563,1517.687C1868.963,1518.387 1867.596,1519.362 1866.463,1520.612C1865.329,1521.862 1864.471,1523.312 1863.888,1524.962C1863.304,1526.612 1863.013,1528.404 1863.013,1530.337C1863.013,1532.171 1863.304,1533.904 1863.888,1535.537C1864.471,1537.171 1865.329,1538.621 1866.463,1539.887C1867.596,1541.154 1868.963,1542.154 1870.563,1542.887C1872.163,1543.621 1873.963,1543.987 1875.963,1543.987Z" style="fill:white;fill-rule:nonzero;"/>
            <path d="M1955.213,1549.537C1951.846,1549.537 1949.021,1548.896 1946.738,1547.612C1944.454,1546.329 1942.721,1544.521 1941.538,1542.187C1940.354,1539.854 1939.763,1537.137 1939.763,1534.037L1939.763,1512.137L1945.763,1512.137L1945.763,1534.537C1945.763,1536.404 1946.129,1538.054 1946.863,1539.487C1947.596,1540.921 1948.663,1542.029 1950.063,1542.812C1951.463,1543.596 1953.179,1543.987 1955.213,1543.987C1957.246,1543.987 1958.954,1543.604 1960.338,1542.837C1961.721,1542.071 1962.779,1540.971 1963.513,1539.537C1964.246,1538.104 1964.613,1536.437 1964.613,1534.537L1964.613,1512.137L1970.613,1512.137L1970.613,1534.037C1970.613,1537.137 1970.029,1539.854 1968.863,1542.187C1967.696,1544.521 1965.971,1546.329 1963.688,1547.612C1961.404,1548.896 1958.579,1549.537 1955.213,1549.537Z" style="fill:white;fill-rule:nonzero;"/>
            <path d="M2017.713,1548.637L2017.713,1512.137L2023.663,1512.137L2023.663,1548.637L2017.713,1548.637ZM2022.663,1548.637L2022.663,1543.437L2039.763,1543.437L2039.763,1548.637L2022.663,1548.637ZM2022.663,1532.687L2022.663,1527.487L2038.363,1527.487L2038.363,1532.687L2022.663,1532.687ZM2022.663,1517.337L2022.663,1512.137L2039.313,1512.137L2039.313,1517.337L2022.663,1517.337Z" style="fill:white;fill-rule:nonzero;"/>
            <path d="M2134.713,1548.637L2134.713,1511.887L2140.713,1511.887L2140.713,1548.637L2134.713,1548.637ZM2157.113,1548.637L2145.513,1532.587L2152.313,1532.587L2164.263,1548.637L2157.113,1548.637ZM2138.763,1535.937L2138.763,1530.887L2148.263,1530.887C2149.696,1530.887 2150.929,1530.596 2151.963,1530.012C2152.996,1529.429 2153.788,1528.621 2154.338,1527.587C2154.888,1526.554 2155.163,1525.354 2155.163,1523.987C2155.163,1522.654 2154.888,1521.471 2154.338,1520.437C2153.788,1519.404 2152.996,1518.587 2151.963,1517.987C2150.929,1517.387 2149.696,1517.087 2148.263,1517.087L2138.763,1517.087L2138.763,1511.887L2147.463,1511.887C2150.263,1511.887 2152.696,1512.312 2154.763,1513.162C2156.829,1514.012 2158.429,1515.287 2159.563,1516.987C2160.696,1518.687 2161.263,1520.871 2161.263,1523.537L2161.263,1524.337C2161.263,1527.004 2160.688,1529.187 2159.538,1530.887C2158.388,1532.587 2156.788,1533.854 2154.738,1534.687C2152.688,1535.521 2150.263,1535.937 2147.463,1535.937L2138.763,1535.937Z" style="fill:white;fill-rule:nonzero;"/>
            <path d="M2208.213,1548.637L2208.213,1512.137L2214.163,1512.137L2214.163,1548.637L2208.213,1548.637ZM2213.163,1548.637L2213.163,1543.437L2230.263,1543.437L2230.263,1548.637L2213.163,1548.637ZM2213.163,1532.687L2213.163,1527.487L2228.863,1527.487L2228.863,1532.687L2213.163,1532.687ZM2213.163,1517.337L2213.163,1512.137L2229.813,1512.137L2229.813,1517.337L2213.163,1517.337Z" style="fill:white;fill-rule:nonzero;"/>
            <path d="M2287.913,1549.537C2284.779,1549.537 2282.121,1549.029 2279.938,1548.012C2277.754,1546.996 2276.096,1545.596 2274.963,1543.812C2273.829,1542.029 2273.263,1540.004 2273.263,1537.737L2279.163,1537.737C2279.163,1538.771 2279.446,1539.787 2280.013,1540.787C2280.579,1541.787 2281.496,1542.612 2282.763,1543.262C2284.029,1543.912 2285.746,1544.237 2287.913,1544.237C2289.879,1544.237 2291.504,1543.954 2292.788,1543.387C2294.071,1542.821 2295.021,1542.071 2295.638,1541.137C2296.254,1540.204 2296.563,1539.171 2296.563,1538.037C2296.563,1536.637 2295.963,1535.496 2294.763,1534.612C2293.563,1533.729 2291.763,1533.187 2289.363,1532.987L2285.713,1532.637C2282.346,1532.371 2279.663,1531.329 2277.663,1529.512C2275.663,1527.696 2274.663,1525.304 2274.663,1522.337C2274.663,1520.071 2275.204,1518.104 2276.288,1516.437C2277.371,1514.771 2278.896,1513.462 2280.863,1512.512C2282.829,1511.562 2285.113,1511.087 2287.713,1511.087C2290.379,1511.087 2292.696,1511.562 2294.663,1512.512C2296.629,1513.462 2298.154,1514.796 2299.238,1516.512C2300.321,1518.229 2300.863,1520.271 2300.863,1522.637L2294.963,1522.637C2294.963,1521.571 2294.704,1520.562 2294.188,1519.612C2293.671,1518.662 2292.879,1517.887 2291.813,1517.287C2290.746,1516.687 2289.379,1516.387 2287.713,1516.387C2286.113,1516.387 2284.788,1516.671 2283.738,1517.237C2282.688,1517.804 2281.896,1518.537 2281.363,1519.437C2280.829,1520.337 2280.563,1521.304 2280.563,1522.337C2280.563,1523.571 2281.029,1524.662 2281.963,1525.612C2282.896,1526.562 2284.329,1527.121 2286.263,1527.287L2289.863,1527.587C2292.429,1527.787 2294.654,1528.329 2296.538,1529.212C2298.421,1530.096 2299.888,1531.271 2300.938,1532.737C2301.988,1534.204 2302.513,1535.971 2302.513,1538.037C2302.513,1540.304 2301.904,1542.304 2300.688,1544.037C2299.471,1545.771 2297.771,1547.121 2295.588,1548.087C2293.404,1549.054 2290.846,1549.537 2287.913,1549.537Z" style="fill:white;fill-rule:nonzero;"/>
            <path d="M2364.613,1549.537C2361.313,1549.537 2358.471,1548.962 2356.088,1547.812C2353.704,1546.662 2351.729,1545.137 2350.163,1543.237C2348.596,1541.337 2347.438,1539.296 2346.688,1537.112C2345.938,1534.929 2345.563,1532.837 2345.563,1530.837L2345.563,1529.737C2345.563,1527.537 2345.954,1525.337 2346.738,1523.137C2347.521,1520.937 2348.704,1518.929 2350.288,1517.112C2351.871,1515.296 2353.854,1513.837 2356.238,1512.737C2358.621,1511.637 2361.413,1511.087 2364.613,1511.087C2367.813,1511.087 2370.596,1511.637 2372.963,1512.737C2375.329,1513.837 2377.313,1515.296 2378.913,1517.112C2380.513,1518.929 2381.704,1520.937 2382.488,1523.137C2383.271,1525.337 2383.663,1527.537 2383.663,1529.737L2383.663,1530.837C2383.663,1532.837 2383.279,1534.929 2382.513,1537.112C2381.746,1539.296 2380.588,1541.337 2379.038,1543.237C2377.488,1545.137 2375.513,1546.662 2373.113,1547.812C2370.713,1548.962 2367.879,1549.537 2364.613,1549.537ZM2364.613,1543.987C2366.613,1543.987 2368.413,1543.621 2370.013,1542.887C2371.613,1542.154 2372.979,1541.154 2374.113,1539.887C2375.246,1538.621 2376.104,1537.171 2376.688,1535.537C2377.271,1533.904 2377.563,1532.171 2377.563,1530.337C2377.563,1528.404 2377.263,1526.612 2376.663,1524.962C2376.063,1523.312 2375.204,1521.862 2374.088,1520.612C2372.971,1519.362 2371.613,1518.387 2370.013,1517.687C2368.413,1516.987 2366.613,1516.637 2364.613,1516.637C2362.613,1516.637 2360.813,1516.987 2359.213,1517.687C2357.613,1518.387 2356.246,1519.362 2355.113,1520.612C2353.979,1521.862 2353.121,1523.312 2352.538,1524.962C2351.954,1526.612 2351.663,1528.404 2351.663,1530.337C2351.663,1532.171 2351.954,1533.904 2352.538,1535.537C2353.121,1537.171 2353.979,1538.621 2355.113,1539.887C2356.246,1541.154 2357.613,1542.154 2359.213,1542.887C2360.813,1543.621 2362.613,1543.987 2364.613,1543.987Z" style="fill:white;fill-rule:nonzero;"/>
            <path d="M2429.113,1548.637L2429.113,1512.137L2435.113,1512.137L2435.113,1548.637L2429.113,1548.637ZM2434.113,1548.637L2434.113,1543.287L2450.363,1543.287L2450.363,1548.637L2434.113,1548.637Z" style="fill:white;fill-rule:nonzero;"/>
            <path d="M2499.613,1548.637L2487.513,1512.137L2493.663,1512.137L2504.163,1544.587L2501.963,1543.487L2507.663,1543.487L2505.263,1544.587L2514.963,1512.137L2520.963,1512.137L2509.663,1548.637L2499.613,1548.637Z" style="fill:white;fill-rule:nonzero;"/>
            <path d="M2565.263,1548.637L2565.263,1512.137L2571.213,1512.137L2571.213,1548.637L2565.263,1548.637ZM2570.213,1548.637L2570.213,1543.437L2587.313,1543.437L2587.313,1548.637L2570.213,1548.637ZM2570.213,1532.687L2570.213,1527.487L2585.913,1527.487L2585.913,1532.687L2570.213,1532.687ZM2570.213,1517.337L2570.213,1512.137L2586.863,1512.137L2586.863,1517.337L2570.213,1517.337Z" style="fill:white;fill-rule:nonzero;"/>
        </g>
        <g transform="matrix(1.309444,0,0,1.309444,-642.62906,496.161099)">
            <path d="M908.09,540.876L908.09,791.271C908.09,837.337 870.69,874.736 824.625,874.736L574.23,874.736C528.164,874.736 490.765,837.337 490.765,791.271L490.765,540.876C490.765,494.811 528.164,457.411 574.23,457.411L824.625,457.411C870.69,457.411 908.09,494.811 908.09,540.876Z" style="fill:none;stroke:white;stroke-width:25.46px;"/>
        </g>
        <g transform="matrix(1.247144,0,0,1.247144,-591.77523,541.667072)">
            <path d="M662.139,788.035C661.257,789.214 659.882,789.924 658.41,789.962C656.937,789.999 655.528,789.359 654.587,788.226C636.692,766.682 562.313,677.134 539.701,649.912C538.51,648.477 538.255,646.482 539.047,644.794C539.84,643.105 541.537,642.027 543.402,642.027C557.79,642.027 583.059,642.027 590.578,642.027C591.958,642.027 593.271,642.619 594.184,643.653C604.929,655.819 672.708,732.565 686.867,748.598C688.376,750.307 688.479,752.84 687.113,754.666C681.753,761.827 668.575,779.436 662.139,788.035Z" style="fill:white;"/>
            <path d="M655.841,703.183C654.196,701.348 654.204,698.566 655.86,696.741C675.574,675.007 789.054,549.894 803.128,534.378C804.04,533.372 805.334,532.799 806.691,532.799L844.389,532.799C846.212,532.799 847.879,533.83 848.693,535.462C849.508,537.093 849.33,539.045 848.233,540.502C822.384,574.865 717.969,713.665 697.423,740.978C696.557,742.128 695.222,742.831 693.784,742.892C692.346,742.954 690.956,742.368 689.995,741.296C681.815,732.168 663.051,711.229 655.841,703.183Z" style="fill:rgb(6,115,251);"/>
            <path d="M655.841,703.183C654.196,701.348 654.204,698.566 655.86,696.741L803.128,534.378C804.04,533.372 805.334,532.799 806.691,532.799L844.389,532.799C846.212,532.799 847.879,533.83 848.693,535.462C849.508,537.093 849.33,539.045 848.233,540.502L697.423,740.978C696.557,742.128 695.222,742.831 693.784,742.892C692.346,742.954 690.956,742.368 689.995,741.296L655.841,703.183ZM656.09,702.961L690.244,741.073C691.138,742.071 692.432,742.616 693.77,742.558C695.108,742.501 696.351,741.847 697.156,740.777L847.966,540.301C848.986,538.945 849.152,537.129 848.394,535.611C847.637,534.092 846.086,533.133 844.389,533.133L806.691,533.133C805.428,533.133 804.224,533.667 803.375,534.602L656.108,696.965C654.567,698.664 654.559,701.252 656.09,702.961Z" style="fill:rgb(6,115,251);"/>
        </g>
    </g>
</svg>
